<?xml version="1.0" encoding="UTF-8"?><svg id="Layer_1" xmlns="http://www.w3.org/2000/svg" xmlns:xlink="http://www.w3.org/1999/xlink" viewBox="0 0 32 32"><defs><style>.cls-1{fill:url(#linear-gradient-5);}.cls-2{fill:url(#linear-gradient-4);}.cls-3{fill:url(#linear-gradient-3);}.cls-4{fill:url(#linear-gradient-2);}.cls-5{fill:url(#linear-gradient);}.cls-6{fill:#fff;}</style><linearGradient id="linear-gradient" x1="22.52" y1="20.34" x2="31.66" y2="20.34" gradientUnits="userSpaceOnUse"><stop offset="0" stop-color="#fff"/><stop offset=".1" stop-color="#fef9f9"/><stop offset=".24" stop-color="#fbe9e9"/><stop offset=".39" stop-color="#f8cfce"/><stop offset=".55" stop-color="#f2aba9"/><stop offset=".72" stop-color="#ec7c79"/><stop offset=".9" stop-color="#e3443f"/><stop offset="1" stop-color="#df231d"/></linearGradient><linearGradient id="linear-gradient-2" x1="13.53" y1="2.62" x2="18.42" y2="2.62" xlink:href="#linear-gradient"/><linearGradient id="linear-gradient-3" x1=".34" x2="9.48" xlink:href="#linear-gradient"/><linearGradient id="linear-gradient-4" x1="22.26" y1="17.84" x2="31.92" y2="17.84" xlink:href="#linear-gradient"/><linearGradient id="linear-gradient-5" x1=".08" y1="17.84" x2="9.74" y2="17.84" xlink:href="#linear-gradient"/></defs><rect class="cls-5" x="22.52" y="19.78" width="9.13" height="1.12"/><rect class="cls-6" x="15.46" y="3.94" width="1.12" height="22.76"/><path class="cls-4" d="M15.98,5.06c-1.35,0-2.45-1.1-2.45-2.45S14.63.17,15.98.17s2.45,1.1,2.45,2.45-1.1,2.45-2.45,2.45ZM15.98,1.29c-.73,0-1.33.59-1.33,1.33s.59,1.33,1.33,1.33,1.33-.59,1.33-1.33-.59-1.33-1.33-1.33Z"/><path class="cls-6" d="M24.67,31.83H7.37c-.26,0-.48-.17-.54-.42l-.27-1.08c-.07-.26.07-.54.31-.65l8.93-4.04c.15-.07.31-.07.46,0l8.93,4.04c.25.11.38.38.31.65l-.27,1.05c-.06.25-.3.46-.55.46ZM7.8,30.71h16.43l.05-.21-8.27-3.74-8.27,3.74.05.21Z"/><path class="cls-6" d="M4.99,11.6l-.33-1.07.54-.16c9.44-2.9,12.67-2.9,21.56-.02l.53.17-.34,1.07-.53-.17c-8.71-2.82-11.63-2.81-20.89.03l-.54.16Z"/><rect class="cls-3" x=".34" y="19.78" width="9.13" height="1.12"/><path class="cls-2" d="M27.09,25.17c-2.66,0-4.83-2.17-4.83-4.83,0-.08.02-.16.05-.23l4.27-9.3c.18-.4.83-.4,1.02,0l4.27,9.3c.03.07.05.15.05.23,0,2.66-2.17,4.83-4.83,4.83ZM23.38,20.46c.06,1.99,1.7,3.59,3.71,3.59s3.65-1.6,3.71-3.59l-3.71-8.08-3.71,8.08Z"/><path class="cls-1" d="M4.91,25.17C2.25,25.17.08,23,.08,20.34c0-.08.02-.16.05-.23l4.27-9.3c.18-.4.83-.4,1.02,0l4.27,9.3c.03.07.05.15.05.23,0,2.66-2.17,4.83-4.83,4.83ZM1.2,20.46c.06,1.99,1.7,3.59,3.71,3.59s3.65-1.6,3.71-3.59l-3.71-8.08-3.71,8.08Z"/></svg>