<?xml version="1.0" encoding="UTF-8"?><svg id="Layer_1" xmlns="http://www.w3.org/2000/svg" viewBox="0 0 32 32"><defs><style>.cls-1{fill:#fff;}</style></defs><circle class="cls-1" cx="16" cy="16" r="16"/><path d="M8.4,8.4v15.2h15.2v-15.2h-15.2ZM16.67,20.26c0,1.48-.87,2.15-2.13,2.15-1.14,0-1.81-.59-2.14-1.31h0s0,0,0,0c0,0,0,0,0,0l1.16-.7c.22.4.43.73.92.73s.77-.18.77-.9v-4.86h1.43v4.88ZM20.05,22.41c-1.33,0-2.18-.63-2.6-1.46h0l1.16-.67c.31.5.7.87,1.41.87.59,0,.97-.3.97-.7,0-.49-.39-.66-1.04-.95l-.36-.15c-1.03-.44-1.71-.99-1.71-2.15,0-1.07.82-1.89,2.09-1.89.91,0,1.56.32,2.03,1.14l-1.11.71c-.24-.44-.51-.61-.92-.61s-.68.27-.68.61c0,.43.27.6.88.87l.36.15c1.21.52,1.9,1.05,1.9,2.24,0,1.29-1.01,1.99-2.37,1.99Z"/></svg>