<?xml version="1.0" encoding="UTF-8"?><svg id="Layer_1" xmlns="http://www.w3.org/2000/svg" viewBox="0 0 32 32"><defs><style>.cls-1{fill:#fff;}</style></defs><circle class="cls-1" cx="16" cy="16" r="16"/><path d="M13.16,21.04s-.83.48.59.65c1.72.2,2.6.17,4.49-.19,0,0,.5.31,1.19.58-4.25,1.82-9.61-.11-6.27-1.04M12.64,18.67s-.93.69.49.83c1.84.19,3.28.21,5.79-.28,0,0,.35.35.89.54-5.13,1.5-10.85.12-7.18-1.1M17.01,14.64c1.05,1.2-.27,2.29-.27,2.29,0,0,2.66-1.37,1.44-3.09-1.14-1.6-2.01-2.4,2.72-5.14,0,0-7.42,1.85-3.88,5.94M22.62,22.8s.61.51-.67.9c-2.45.74-10.2.97-12.35.03-.77-.34.68-.8,1.13-.9.48-.1.75-.08.75-.08-.86-.61-5.56,1.19-2.39,1.7,8.65,1.4,15.78-.63,13.53-1.64M13.55,16.21s-3.94.94-1.39,1.28c1.07.14,3.22.11,5.21-.06,1.63-.14,3.27-.43,3.27-.43,0,0-.58.25-.99.53-4,1.05-11.73.56-9.51-.51,1.88-.91,3.41-.81,3.41-.81M20.62,20.16c4.07-2.11,2.19-4.15.87-3.87-.32.07-.47.12-.47.12,0,0,.12-.19.35-.27,2.6-.91,4.59,2.69-.84,4.12,0,0,.06-.06.08-.11M18.17,4.27s2.25,2.25-2.14,5.72c-3.52,2.78-.8,4.37,0,6.18-2.05-1.85-3.56-3.49-2.55-5,1.49-2.23,5.6-3.31,4.69-6.89M13.95,25.89c3.9.25,9.9-.14,10.04-1.99,0,0-.27.7-3.23,1.26-3.33.63-7.44.55-9.88.15,0,0,.5.41,3.07.58"/></svg>