<?xml version="1.0" encoding="UTF-8"?><svg id="Layer_1" xmlns="http://www.w3.org/2000/svg" viewBox="0 0 32 32"><defs><style>.cls-1{fill:#fff;}.cls-2{fill:#191919;}</style></defs><circle class="cls-1" cx="16" cy="16" r="16"/><path class="cls-2" d="M27.35,10.46s-.01-.08-.04-.1c-.03-.02-.08-.04-.15-.04h-.1v.28h.12c.11,0,.17-.05.17-.14ZM27.51,11.04h-.14l-.09-.2c-.04-.1-.09-.15-.15-.15h-.07v.34h-.11v-.81h.23c.1,0,.18.02.23.07.04.04.07.09.07.15,0,.06-.02.1-.05.14-.04.04-.09.07-.15.08h0s.09.06.13.15l.11.22h0ZM27.76,10.64c0-.16-.05-.3-.16-.4-.11-.11-.24-.16-.4-.16s-.3.05-.4.16c-.11.11-.16.24-.16.4s.06.3.17.41c.11.11.24.16.4.16s.29-.05.4-.16c.11-.11.16-.24.16-.4ZM27.84,10.64c0,.18-.06.33-.19.45-.12.12-.28.18-.46.18s-.34-.06-.46-.18c-.12-.12-.18-.27-.18-.45s.06-.33.18-.45c.12-.12.28-.18.46-.18s.33.06.45.18c.12.12.19.27.19.45h0ZM10.46,12.9h-.39v-2.26c0-.18.01-.4.03-.65h0c-.04.15-.07.26-.1.33l-1.15,2.58h-.19l-1.15-2.56c-.03-.07-.07-.19-.1-.34h0c.01.13.02.35.02.66v2.25h-.38v-3.36h.52l1.03,2.34c.08.18.13.31.15.4h.02c.07-.18.12-.32.16-.41l1.05-2.33h.49v3.36h0ZM11.67,12.9h-.38v-2.4h.38v2.4ZM11.74,9.65c0,.07-.02.13-.07.18-.05.05-.11.07-.18.07s-.13-.02-.18-.07c-.05-.05-.07-.11-.07-.18,0-.07.02-.13.07-.18.05-.05.11-.07.18-.07s.13.02.18.07c.05.05.07.11.07.18ZM14.07,12.79c-.18.11-.4.17-.66.17-.34,0-.62-.11-.83-.34-.21-.22-.31-.51-.31-.86,0-.39.11-.71.34-.95.23-.24.53-.36.91-.36.21,0,.39.04.55.12v.39c-.18-.13-.37-.19-.57-.19-.24,0-.44.09-.6.26-.16.17-.24.41-.24.7s.07.5.22.66c.15.16.34.24.59.24.21,0,.41-.07.59-.21v.36ZM15.9,10.9c-.07-.05-.16-.08-.29-.08-.16,0-.29.07-.39.21-.12.16-.18.38-.18.65v1.22h-.38v-2.4h.38v.49h0c.06-.18.14-.31.26-.41.11-.09.23-.13.37-.13.1,0,.18.01.23.03v.4h0ZM18.04,11.71c0-.31-.07-.54-.21-.7-.13-.15-.32-.23-.56-.23s-.43.08-.57.23c-.15.17-.23.4-.23.71,0,.29.07.51.22.67.14.16.34.24.58.24s.45-.08.58-.25c.13-.16.19-.39.19-.68M18.43,11.7c0,.38-.11.69-.32.92-.22.23-.51.35-.87.35s-.65-.12-.86-.35c-.21-.22-.31-.52-.31-.88,0-.42.12-.74.35-.97.22-.21.51-.32.87-.32s.64.11.84.33c.2.22.3.53.3.92M20.34,12.26c0,.2-.07.36-.22.49-.16.14-.38.21-.66.21-.23,0-.43-.05-.59-.14v-.41c.19.15.4.23.62.23.3,0,.46-.11.46-.34,0-.09-.03-.17-.1-.23-.07-.06-.2-.13-.39-.22-.2-.09-.34-.18-.43-.27-.1-.11-.15-.26-.15-.43,0-.2.08-.36.24-.5.16-.13.36-.2.61-.2.19,0,.36.04.51.11v.39c-.16-.11-.34-.17-.54-.17-.13,0-.23.03-.31.09-.08.06-.12.14-.12.24,0,.11.03.19.1.25.06.05.18.12.36.2.2.09.35.17.44.27.12.12.18.26.18.44M22.68,11.71c0-.31-.07-.54-.21-.7-.13-.15-.32-.23-.56-.23s-.43.08-.57.23c-.15.17-.23.4-.23.71,0,.29.07.51.22.67.15.16.34.24.58.24s.45-.08.58-.25c.13-.16.19-.39.19-.68M23.08,11.7c0,.38-.11.69-.32.92-.22.23-.51.35-.87.35s-.65-.12-.86-.35c-.21-.22-.31-.52-.31-.88,0-.42.12-.74.35-.97.22-.21.51-.32.87-.32s.64.11.84.33c.2.22.3.53.3.92M24.77,9.69c-.08-.04-.16-.06-.26-.06-.27,0-.4.17-.4.51v.37h.56v.33h-.56v2.07h-.38v-2.07h-.41v-.33h.41v-.39c0-.26.08-.47.25-.62.14-.13.31-.19.52-.19.12,0,.21.01.28.04v.35ZM26.28,12.88c-.09.05-.21.08-.36.08-.42,0-.63-.24-.63-.71v-1.42h-.41v-.33h.41v-.59c.12-.04.25-.08.38-.12v.71h.6v.33h-.6v1.35c0,.16.03.28.08.34.06.07.15.1.27.1.1,0,.18-.03.25-.08v.33ZM5.53,22.27c0,.19-.07.35-.2.49-.14.14-.3.21-.49.21s-.35-.07-.48-.21c-.13-.14-.2-.3-.2-.49s.07-.36.2-.49c.13-.14.29-.2.48-.2s.36.07.49.21c.14.14.2.3.2.49M14.13,22.82h-1.25l-4.55-7.02c-.11-.17-.2-.35-.28-.55h-.04c.03.19.05.59.05,1.21v6.36h-1.03v-8.81h1.34l4.41,6.91c.18.27.3.47.36.59h.02c-.04-.25-.06-.69-.06-1.29v-6.2h1.03v8.81h0ZM20.74,22.82h-4.67v-8.81h4.46v.93h-3.43v2.93h3.18v.93h-3.18v3.08h3.64v.93ZM27.82,14.95h-2.54v7.87h-1.03v-7.87h-2.54v-.93h6.11v.93Z"/></svg>