<?xml version="1.0" encoding="UTF-8"?><svg id="Layer_1" xmlns="http://www.w3.org/2000/svg" viewBox="0 0 32 32"><defs><style>.cls-1{fill:#fff;}</style></defs><circle class="cls-1" cx="16" cy="16" r="16"/><path d="M10.11,12.63h-4.15l-1.8,9.09h2.13l.45-2.36h2.02c1.91.11,4.04-1.46,4.04-4.15,0-1.57-.9-2.47-2.69-2.58h0ZM8.54,17.68h-1.35l.56-3.37h1.46c.79,0,1.35.34,1.35,1.01-.11,1.91-1.01,2.24-2.02,2.36ZM17.63,12.63h-2.02l.45-2.36h-2.13l-1.8,9.09h2.13l1.01-5.05h1.68c.79,0,.79.34.67.9l-.79,4.15h2.24l.79-4.6c.22-1.12-.45-2.02-2.24-2.13h0ZM25.15,12.63h-4.15l-1.8,9.09h2.13l.45-2.36h2.02c1.91.11,4.04-1.46,4.04-4.15,0-1.57-.9-2.47-2.69-2.58h0ZM23.57,17.68h-1.35l.56-3.37h1.46c.79,0,1.35.34,1.35,1.01-.11,1.91-1.01,2.24-2.02,2.36Z"/></svg>