<?xml version="1.0" encoding="UTF-8"?><svg id="Layer_1" xmlns="http://www.w3.org/2000/svg" xmlns:xlink="http://www.w3.org/1999/xlink" viewBox="0 0 32 32"><defs><style>.cls-1{fill:url(#linear-gradient-2);}.cls-2{fill:url(#linear-gradient);}.cls-3{fill:#fff;}</style><linearGradient id="linear-gradient" x1="6.96" y1="23.93" x2="24.62" y2="23.93" gradientUnits="userSpaceOnUse"><stop offset="0" stop-color="#fff"/><stop offset=".1" stop-color="#fef9f9"/><stop offset=".24" stop-color="#fbe9e9"/><stop offset=".39" stop-color="#f8cfce"/><stop offset=".55" stop-color="#f2aba9"/><stop offset=".72" stop-color="#ec7c79"/><stop offset=".9" stop-color="#e3443f"/><stop offset="1" stop-color="#df231d"/></linearGradient><linearGradient id="linear-gradient-2" x1="12.73" y1="5.53" x2="18.86" y2="5.53" xlink:href="#linear-gradient"/></defs><path class="cls-3" d="M25.37,29.54H6.22c-.15,0-.29-.06-.4-.16l-2.48-2.48c-.1-.1-.16-.25-.16-.4v-13.21c0-.15.06-.29.16-.4l2.48-2.48c.1-.1.25-.16.4-.16h19.14c.15,0,.29.06.4.16l2.48,2.48c.1.1.16.25.16.4v13.21c0,.15-.06.29-.16.4l-2.48,2.48c-.1.11-.25.16-.4.16ZM6.45,28.42h18.68l2.15-2.15v-12.74l-2.15-2.15H6.45l-2.15,2.15v12.74l2.15,2.15Z"/><path class="cls-3" d="M28.26,25.02h-.56v-1.12h.56c1.49,0,2.7-1.21,2.7-2.7s-1.21-2.7-2.7-2.7h-.56v-1.12h.56c2.11,0,3.82,1.71,3.82,3.82s-1.71,3.82-3.82,3.82Z"/><path class="cls-3" d="M4.3,25.02h-.56c-2.11,0-3.82-1.71-3.82-3.82s1.71-3.82,3.82-3.82h.56v1.12h-.56c-1.49,0-2.7,1.21-2.7,2.7s1.21,2.7,2.7,2.7h.56v1.12Z"/><path class="cls-2" d="M15.62,25.02c-2.77,0-5.48-.32-8.12-.95l-.54-.13.26-1.09.54.13c5.17,1.25,10.43,1.25,16.07,0l.55-.12.24,1.09-.55.12c-2.86.63-5.69.95-8.45.95Z"/><rect class="cls-3" x="15.23" y="7.48" width="1.12" height="3.89"/><path class="cls-1" d="M15.79,8.6c-1.69,0-3.07-1.38-3.07-3.07s1.38-3.07,3.07-3.07,3.07,1.38,3.07,3.07-1.38,3.07-3.07,3.07ZM15.79,3.58c-1.07,0-1.95.87-1.95,1.95s.87,1.95,1.95,1.95,1.95-.87,1.95-1.95-.87-1.95-1.95-1.95Z"/><path class="cls-3" d="M13.78,19.2h-1.12v-.56c0-1.07-.87-1.95-1.95-1.95s-1.95.87-1.95,1.95v.56h-1.12v-.56c0-1.69,1.38-3.07,3.07-3.07s3.07,1.38,3.07,3.07v.56Z"/><path class="cls-3" d="M23.81,19.2h-1.12v-.56c0-1.07-.87-1.95-1.95-1.95s-1.95.87-1.95,1.95v.56h-1.12v-.56c0-1.69,1.38-3.07,3.07-3.07s3.07,1.38,3.07,3.07v.56Z"/></svg>