<?xml version="1.0" encoding="UTF-8"?><svg id="Layer_1" xmlns="http://www.w3.org/2000/svg" viewBox="0 0 32 32"><defs><style>.cls-1{fill:#fff;}</style></defs><circle class="cls-1" cx="16" cy="16" r="16"/><path d="M20.8,11.6v1.9c-.02,1.48-1.2,2.68-2.68,2.72h-4.28c-1.19.02-2.14.99-2.14,2.18v4.08c0,1.16,1.01,1.84,2.14,2.18,1.39.44,2.89.44,4.28,0,1.08-.31,2.14-.94,2.14-2.18v-1.63h-4.28v-.54h6.42c1.24,0,1.71-.87,2.14-2.17.44-1.42.44-2.94,0-4.35-.31-1.24-.9-2.17-2.14-2.17h-1.61ZM18.39,21.93c.45,0,.82.35.83.8s-.35.82-.8.83c-.45,0-.82-.35-.83-.8,0,0,0-.01,0-.02,0-.45.36-.81.8-.81h0ZM15.89,7.02c-.69,0-1.37.06-2.05.17-1.81.32-2.14.99-2.14,2.23v1.63h4.28v.54h-5.89c-1.3-.02-2.43.89-2.68,2.17-.4,1.42-.4,2.93,0,4.35.3,1.27,1.03,2.17,2.28,2.17h1.47v-1.96c.03-1.46,1.21-2.64,2.68-2.66h4.28c1.19,0,2.15-.98,2.14-2.17,0,0,0,0,0,0v-4.08c-.07-1.17-.98-2.11-2.14-2.23-.74-.12-1.48-.18-2.23-.17ZM13.58,8.34c.45,0,.82.35.83.8,0,.45-.35.82-.8.83-.45,0-.82-.35-.83-.8,0,0,0,0,0-.01,0-.45.36-.81.8-.82Z"/></svg>