<?xml version="1.0" encoding="UTF-8"?><svg id="Layer_1" xmlns="http://www.w3.org/2000/svg" viewBox="0 0 32 32"><defs><style>.cls-1{fill:#fff;}</style></defs><circle class="cls-1" cx="16" cy="16" r="16"/><path d="M22.65,7.35h-13.3l-3.99,4.66,10.64,12.64,10.64-12.64-3.99-4.66ZM11.53,11.34h-3.84l2.02-2.37,1.82,2.37ZM13.9,11.34l2.1-2.45,2.1,2.45h-4.2ZM18.66,12.67l-2.66,8.88-2.66-8.88h5.32ZM12.36,12.67l2.51,8.57-7.21-8.57h4.69ZM19.66,12.67h4.69l-7.22,8.57,2.53-8.57ZM20.48,11.34l1.82-2.37,2.01,2.37h-3.86.03ZM21.32,8.68l-1.92,2.41-1.94-2.41h3.86ZM12.58,11.12l-1.9-2.43h3.86l-1.96,2.43Z"/></svg>