<?xml version="1.0" encoding="UTF-8"?><svg id="Layer_1" xmlns="http://www.w3.org/2000/svg" viewBox="0 0 32 32"><defs><style>.cls-1{fill:#f1efed;}</style></defs><circle class="cls-1" cx="16" cy="16" r="16"/><path d="M6.72,15.99c-.05-7.5,10-10.81,14.33-3.84l-3.32,1.92c-2.01-3.32-6.99-2.13-7.17,1.92.05,3.73,4.95,5.47,7.17,1.92l3.32,1.92c-3.82,6.63-14.14,4.24-14.33-3.84ZM22.08,16.42h-.85v.85h-.85v-.85h-.85v-.85h.85v-.85h.85v.85h.85v.85ZM25.28,16.42h-.85v.85h-.85v-.85h-.85v-.85h.85v-.85h.85v.85h.85v.85Z"/></svg>