<?xml version="1.0" encoding="UTF-8"?><svg id="Layer_1" xmlns="http://www.w3.org/2000/svg" xmlns:xlink="http://www.w3.org/1999/xlink" viewBox="0 0 32 32"><defs><style>.cls-1{fill:url(#linear-gradient-5);}.cls-2{fill:url(#linear-gradient-6);}.cls-3{fill:url(#linear-gradient-4);}.cls-4{fill:url(#linear-gradient-3);}.cls-5{fill:url(#linear-gradient-2);}.cls-6{fill:url(#linear-gradient);}.cls-7{fill:#191919;}</style><linearGradient id="linear-gradient" x1="2843.21" y1="6469.79" x2="2852.55" y2="6469.79" gradientTransform="translate(6475.92 -2824.59) rotate(90)" gradientUnits="userSpaceOnUse"><stop offset="0" stop-color="#191919"/><stop offset=".11" stop-color="#1e1919"/><stop offset=".26" stop-color="#2d1a19"/><stop offset=".42" stop-color="#471b19"/><stop offset=".59" stop-color="#6a1d1a"/><stop offset=".77" stop-color="#981f1b"/><stop offset=".95" stop-color="#cf221c"/><stop offset="1" stop-color="#df231d"/></linearGradient><linearGradient id="linear-gradient-2" x1="2843.89" y1="6465.93" x2="2850.82" y2="6465.93" gradientTransform="translate(6474.45 -2827.09) rotate(90)" xlink:href="#linear-gradient"/><linearGradient id="linear-gradient-3" x1="2845.77" y1="6462.15" x2="2849.7" y2="6462.15" gradientTransform="translate(6473.47 -2830.2) rotate(90)" xlink:href="#linear-gradient"/><linearGradient id="linear-gradient-4" x1="2854.65" y1="6448.33" x2="2849.42" y2="6443.1" gradientTransform="translate(6471.7 -2843.08) rotate(90)" xlink:href="#linear-gradient"/><linearGradient id="linear-gradient-5" x1="2854.57" y1="6451.59" x2="2850.54" y2="6447.56" gradientTransform="translate(6473.2 -2840.5) rotate(90)" xlink:href="#linear-gradient"/><linearGradient id="linear-gradient-6" x1="2853.39" y1="6454.6" x2="2850.9" y2="6452.11" gradientTransform="translate(6474.01 -2837.7) rotate(90)" xlink:href="#linear-gradient"/></defs><path class="cls-7" d="M10.04,31.51l-.79-.79,2.22-2.22c2.64-2.64,4.1-6.29,4.02-10.02l-.1-4.93c-.08-4.03,1.5-7.98,4.35-10.83l2.22-2.22.79.79-2.22,2.22c-2.64,2.64-4.1,6.29-4.02,10.02l.1,4.93c.08,4.03-1.5,7.98-4.35,10.83l-2.22,2.22Z"/><path class="cls-7" d="M1.29,22.75l-.79-.79,2.22-2.22c2.85-2.85,6.81-4.42,10.83-4.35l4.93.1c3.72.06,7.38-1.39,10.02-4.02l2.22-2.22.79.79-2.22,2.22c-2.85,2.85-6.79,4.43-10.83,4.35l-4.93-.1c-3.73-.09-7.38,1.39-10.02,4.02l-2.22,2.22Z"/><rect class="cls-6" x="5.46" y="18.37" width="1.12" height="9.34" transform="translate(-14.53 11.01) rotate(-45)"/><rect class="cls-5" x="7.82" y="16.48" width="1.12" height="6.93" transform="translate(-11.65 11.77) rotate(-45)"/><rect class="cls-4" x="10.76" y="15.58" width="1.12" height="3.93" transform="translate(-9.09 13.14) rotate(-45)"/><rect class="cls-3" x="25.42" y="4.28" width="1.12" height="9.34" transform="translate(1.28 20.99) rotate(-45)"/><rect class="cls-1" x="23.06" y="8.59" width="1.12" height="6.93" transform="translate(-1.61 20.23) rotate(-45)"/><rect class="cls-2" x="20.09" y="12.51" width="1.12" height="3.86" transform="translate(-4.16 18.83) rotate(-45)"/></svg>