<?xml version="1.0" encoding="UTF-8"?><svg id="Layer_1" xmlns="http://www.w3.org/2000/svg" viewBox="0 0 32 32"><defs><style>.cls-1{fill:#f1efed;}</style></defs><circle class="cls-1" cx="16" cy="16" r="16"/><path d="M9.75,13.58h-4.59c-.05,0-.12.03-.14.06l-.27.35s-.01.06.04.06h4.65s.1-.03.13-.06l.22-.33s.01-.08-.04-.08Z"/><path d="M9.09,14.76H3.22c-.05,0-.12.03-.14.06l-.27.35s-.01.06.04.06h6.08c.05-.01.1-.04.12-.09l.1-.31s-.01-.08-.06-.08Z"/><path d="M8.8,15.94h-2.57c-.05,0-.1.04-.13.08l-.18.32s-.01.08.04.08h2.8s.09-.03.09-.08l.03-.31c0-.05-.03-.09-.08-.09Z"/><path d="M29.15,14.81c-.17-1.23-.8-2.17-1.81-2.87-1.12-.76-2.35-.89-3.66-.66-1.53.27-2.66.91-3.6,2.15-.4.53-.7,1.08-.89,1.67h-4.14c-.19,0-.28.13-.32.21-.18.33-.49,1-.66,1.4-.09.22-.03.39.24.39h2.48c-.13.18-.23.33-.35.48-.58.66-1.31.96-2.19.85-1.02-.14-1.72-.99-1.74-2.02-.01-1.04.44-1.88,1.31-2.44.73-.48,1.52-.59,2.33-.19.27.13.41.27.6.49.17.19.18.18.37.13.8-.21,1.35-.36,2.16-.57.15-.04.21-.1.13-.22-.32-.75-.81-1.36-1.49-1.81-1.04-.71-2.2-.85-3.41-.63-1.48.27-2.69,1.03-3.6,2.22-.85,1.11-1.26,2.37-1.09,3.77.14,1.18.68,2.13,1.63,2.85,1.03.77,2.2,1.02,3.46.85,1.53-.21,2.74-.96,3.66-2.19.21-.28.39-.57.54-.87.22.78.65,1.46,1.28,2,.9.77,1.97,1.11,3.14,1.13.33-.04.68-.05,1.03-.12,1.2-.24,2.24-.78,3.08-1.65,1.2-1.21,1.7-2.62,1.48-4.36ZM24.99,18.19c-.68.35-1.39.39-2.1.08-.93-.41-1.41-1.43-1.18-2.43.28-1.21,1.05-1.97,2.25-2.24,1.22-.28,2.39.44,2.62,1.71.03.13.03.26.04.42-.06,1.11-.62,1.93-1.63,2.46Z"/></svg>