<?xml version="1.0" encoding="UTF-8"?><svg id="Layer_1" xmlns="http://www.w3.org/2000/svg" xmlns:xlink="http://www.w3.org/1999/xlink" viewBox="0 0 32 32"><defs><style>.cls-1{fill:#231f20;}.cls-2{fill:url(#linear-gradient);}</style><linearGradient id="linear-gradient" x1="7.52" y1="15.29" x2="23.72" y2="15.29" gradientUnits="userSpaceOnUse"><stop offset="0" stop-color="#191919"/><stop offset=".11" stop-color="#1e1919"/><stop offset=".26" stop-color="#2d1a19"/><stop offset=".42" stop-color="#471b19"/><stop offset=".59" stop-color="#6a1d1a"/><stop offset=".77" stop-color="#981f1b"/><stop offset=".95" stop-color="#cf221c"/><stop offset="1" stop-color="#df231d"/></linearGradient></defs><path class="cls-1" d="M9,30.96h0c-1.83,0-3.55-.71-4.84-2.01s-2.01-3.01-2.01-4.84.71-3.55,2.01-4.84L20.84,2.59c1-1,2.32-1.55,3.73-1.55s2.74.55,3.73,1.55c1,1,1.55,2.32,1.55,3.73s-.55,2.73-1.55,3.73l-3.29,3.29-.79-.79,3.29-3.29c.79-.79,1.22-1.83,1.22-2.94s-.43-2.15-1.22-2.94c-.79-.79-1.83-1.22-2.94-1.22s-2.15.43-2.94,1.22L4.95,20.06c-1.08,1.08-1.68,2.52-1.68,4.05s.6,2.97,1.68,4.05c1.08,1.08,2.52,1.68,4.05,1.68h0c1.53,0,2.97-.6,4.05-1.68l13.74-13.74.79.79-13.74,13.74c-1.29,1.29-3.01,2.01-4.84,2.01Z"/><path class="cls-2" d="M11.23,25.59c-.99,0-1.92-.39-2.62-1.09-.7-.7-1.09-1.63-1.09-2.62s.39-1.92,1.09-2.62l14.29-14.29.79.79-14.29,14.29c-.49.49-.76,1.14-.76,1.83s.27,1.34.76,1.83c.98.98,2.68.98,3.66,0l9.87-9.87.79.79-9.87,9.87c-.7.7-1.63,1.08-2.62,1.08Z"/></svg>