<?xml version="1.0" encoding="utf-8"?>
<!-- Generator: Adobe Illustrator 16.0.0, SVG Export Plug-In . SVG Version: 6.00 Build 0)  -->
<!DOCTYPE svg PUBLIC "-//W3C//DTD SVG 1.1//EN" "http://www.w3.org/Graphics/SVG/1.1/DTD/svg11.dtd">
<svg version="1.1"
	 id="svg2403" xmlns:dc="http://purl.org/dc/elements/1.1/" xmlns:cc="http://creativecommons.org/ns#" xmlns:rdf="http://www.w3.org/1999/02/22-rdf-syntax-ns#" xmlns:svg="http://www.w3.org/2000/svg" xmlns:sodipodi="http://sodipodi.sourceforge.net/DTD/sodipodi-0.dtd" xmlns:inkscape="http://www.inkscape.org/namespaces/inkscape" sodipodi:version="0.32" inkscape:output_extension="org.inkscape.output.svg.inkscape" sodipodi:docname="Logo2008-webtoni-238-border-box-11-nobackground.svg" inkscape:version="0.46"
	 xmlns="http://www.w3.org/2000/svg" xmlns:xlink="http://www.w3.org/1999/xlink" x="0px" y="0px" width="2000px" height="750px"
	 viewBox="400 100 400 500" enable-background="new 0 0 2000 750" xml:space="preserve">
<defs>
	
	
		<inkscape:perspective  inkscape:vp_z="744.09448 : 526.18109 : 1" inkscape:vp_y="0 : 1000 : 0" sodipodi:type="inkscape:persp3d" inkscape:vp_x="0 : 526.18109 : 1" id="perspective2410" inkscape:persp3d-origin="372.04724 : 350.78739 : 1">
		</inkscape:perspective>
</defs>
<sodipodi:namedview  inkscape:cy="340.86776" inkscape:cx="607.95094" inkscape:zoom="0.75464953" showgrid="false" pagecolor="#ffffff" bordercolor="#666666" borderopacity="1.0" objecttolerance="10.0" gridtolerance="10.0" guidetolerance="10.0" id="base" inkscape:current-layer="g2412" inkscape:window-y="218" inkscape:window-x="10" inkscape:pageopacity="0.0" inkscape:pageshadow="2" inkscape:window-width="1534" inkscape:window-height="928">
	</sodipodi:namedview>
<g id="g2412" transform="matrix(1.25,0,0,-1.25,0,750)" inkscape:label="Logo2008" inkscape:groupmode="layer">
	
		<g id="g2414" inkscape:export-ydpi="60.307693" inkscape:export-xdpi="60.307693" inkscape:export-filename="/Users/cunei/Downloads/Scala logo/g2693.png">
		<g id="g2416">
			<g id="g2422">
				<g id="g2424">
					
						<linearGradient id="path2432_1_" gradientUnits="userSpaceOnUse" x1="550.9434" y1="-16.9141" x2="554.043" y2="-16.9141" gradientTransform="matrix(90 0 0 -90 -49225.5977 -1256.1011)">
						<stop  offset="0" style="stop-color:#444444"/>
						<stop  offset="1" style="stop-color:#000000"/>
					</linearGradient>
					<path id="path2432" fill="url(#path2432_1_)" d="M359.293,280.162V252.27c0-4.702,101.439-12.576,167.528-27.893l0,0
						c31.926,7.402,55.61,16.534,55.61,27.893l0,0v27.892c0,11.351-23.684,20.493-55.61,27.892l0,0
						C460.732,292.735,359.293,284.859,359.293,280.162"/>
				</g>
			</g>
		</g>
	</g>
	
		<g id="g2434" inkscape:export-ydpi="60.307693" inkscape:export-xdpi="60.307693" inkscape:export-filename="/Users/cunei/Downloads/Scala logo/g2693.png">
		<g id="g2436">
			<g id="g2442">
				<g id="g2444">
					
						<linearGradient id="path2452_1_" gradientUnits="userSpaceOnUse" x1="550.9434" y1="-17.7539" x2="554.043" y2="-17.7539" gradientTransform="matrix(90 0 0 -90 -49225.5977 -1220.1011)">
						<stop  offset="0" style="stop-color:#444444"/>
						<stop  offset="1" style="stop-color:#000000"/>
					</linearGradient>
					<path id="path2452" fill="url(#path2452_1_)" d="M359.293,391.731v-27.893c0-4.702,101.439-12.576,167.528-27.892l0,0
						c31.926,7.399,55.61,16.534,55.61,27.892l0,0v27.893c0,11.352-23.684,20.492-55.61,27.892l0,0
						C460.732,404.304,359.293,396.428,359.293,391.731"/>
				</g>
			</g>
		</g>
	</g>
	
		<g id="g2554" inkscape:export-ydpi="60.307693" inkscape:export-xdpi="60.307693" inkscape:export-filename="/Users/cunei/Downloads/Scala logo/g2693.png">
		<g id="g2556">
			<g id="g2562">
				<g id="g2564">
					
						<linearGradient id="path2572_1_" gradientUnits="userSpaceOnUse" x1="550.9434" y1="-17.3344" x2="554.043" y2="-17.3344" gradientTransform="matrix(90 0 0 -90 -49225.5977 -1238.1011)">
						<stop  offset="0" style="stop-color:#A61214"/>
						<stop  offset="1" style="stop-color:#D82023"/>
					</linearGradient>
					<path id="path2572" fill="url(#path2572_1_)" d="M359.293,335.946V252.27c0,6.973,223.138,20.919,223.138,55.784l0,0v83.677
						C582.431,356.866,359.293,342.92,359.293,335.946"/>
				</g>
			</g>
		</g>
	</g>
	
		<g id="g2574" inkscape:export-ydpi="60.307693" inkscape:export-xdpi="60.307693" inkscape:export-filename="/Users/cunei/Downloads/Scala logo/g2693.png">
		<g id="g2576">
			<g id="g2582">
				<g id="g2584">
					
						<linearGradient id="path2592_1_" gradientUnits="userSpaceOnUse" x1="550.9434" y1="-18.1735" x2="554.043" y2="-18.1735" gradientTransform="matrix(90 0 0 -90 -49225.5977 -1202.1011)">
						<stop  offset="0" style="stop-color:#A61214"/>
						<stop  offset="1" style="stop-color:#D82023"/>
					</linearGradient>
					<path id="path2592" fill="url(#path2592_1_)" d="M359.293,447.516v-83.677c0,6.973,223.138,20.92,223.138,55.785l0,0V503.3
						C582.431,468.434,359.293,454.488,359.293,447.516"/>
				</g>
			</g>
		</g>
	</g>
	
		<g id="g2694" inkscape:export-ydpi="60.307693" inkscape:export-xdpi="60.307693" inkscape:export-filename="/Users/cunei/Downloads/Scala logo/g2693.png">
		<g id="g2696">
			<g id="g2702">
				<g id="g2704">
					
						<linearGradient id="path2712_1_" gradientUnits="userSpaceOnUse" x1="550.9434" y1="-16.4945" x2="554.043" y2="-16.4945" gradientTransform="matrix(90 0 0 -90 -49225.5977 -1274.1011)">
						<stop  offset="0" style="stop-color:#A61214"/>
						<stop  offset="1" style="stop-color:#D82023"/>
					</linearGradient>
					<path id="path2712" fill="url(#path2712_1_)" d="M359.293,224.377V140.7c0,6.973,223.138,20.92,223.138,55.784l0,0v83.677
						C582.431,245.296,359.293,231.35,359.293,224.377"/>
				</g>
			</g>
		</g>
	</g>
</g>
</svg>
