<?xml version="1.0" encoding="UTF-8"?><svg id="Layer_1" xmlns="http://www.w3.org/2000/svg" viewBox="0 0 300 65.67"><defs><style>.cls-1{fill:#df231d;}.cls-2{isolation:isolate;}.cls-3{fill:#d6d6d6;}</style></defs><path class="cls-1" d="M57.4,51.28s0,0,0,0H11.41s0,0,0,0v-5.27l13.46-6.3s0,0,0,0v-4.5L0,23.27v-8.26s0,0,0,0h48.32v24.7l9.08,11.57ZM70,17.87h-17.11v17.34l17.11-17.34Z"/><g class="cls-2"><g class="cls-2"><path class="cls-3" d="M95.64,34.59c0,1.92.33,3.55.98,4.91.65,1.36,1.57,2.47,2.74,3.33,1.17.87,2.51,1.5,4.03,1.89,1.52.4,3.17.6,4.95.6,1.92,0,3.55-.22,4.91-.67,1.36-.44,2.46-1.02,3.3-1.72s1.45-1.51,1.82-2.42c.37-.91.56-1.83.56-2.77,0-1.92-.43-3.33-1.3-4.24-.87-.91-1.81-1.55-2.84-1.93-1.78-.65-3.85-1.27-6.21-1.86-2.36-.58-5.27-1.34-8.73-2.28-2.15-.56-3.94-1.3-5.37-2.21-1.43-.91-2.56-1.93-3.4-3.05-.84-1.12-1.44-2.31-1.79-3.58-.35-1.26-.53-2.55-.53-3.86,0-2.53.53-4.71,1.58-6.56,1.05-1.85,2.44-3.38,4.17-4.6,1.73-1.22,3.69-2.12,5.89-2.7,2.2-.58,4.42-.88,6.66-.88,2.62,0,5.09.34,7.4,1.02,2.32.68,4.35,1.7,6.1,3.05,1.75,1.36,3.14,3.03,4.17,5.02,1.03,1.99,1.54,4.29,1.54,6.91h-8.77c-.23-3.23-1.33-5.51-3.3-6.84-1.96-1.33-4.47-2-7.51-2-1.03,0-2.08.11-3.16.32-1.08.21-2.06.56-2.95,1.05-.89.49-1.63,1.16-2.21,2-.59.84-.88,1.89-.88,3.16,0,1.78.55,3.17,1.65,4.17,1.1,1.01,2.54,1.77,4.31,2.28.19.05.92.25,2.21.6,1.29.35,2.72.74,4.31,1.16,1.59.42,3.15.83,4.67,1.23,1.52.4,2.61.69,3.26.88,1.64.52,3.06,1.22,4.28,2.1,1.22.89,2.23,1.91,3.05,3.05.82,1.15,1.43,2.37,1.82,3.68.4,1.31.6,2.62.6,3.93,0,2.81-.57,5.2-1.72,7.19-1.15,1.99-2.65,3.61-4.53,4.88-1.87,1.26-4,2.19-6.38,2.77-2.39.58-4.82.88-7.3.88-2.85,0-5.54-.35-8.07-1.05-2.53-.7-4.72-1.78-6.59-3.23-1.87-1.45-3.37-3.31-4.49-5.58-1.12-2.27-1.71-4.95-1.75-8.03h8.77Z"/><path class="cls-3" d="M132.68,15.01h7.58v5.05h.21c.61-.89,1.26-1.71,1.96-2.46.7-.75,1.48-1.38,2.35-1.89.87-.51,1.86-.92,2.98-1.23,1.12-.3,2.41-.46,3.86-.46,2.2,0,4.24.49,6.14,1.47,1.89.98,3.24,2.5,4.03,4.56,1.36-1.87,2.92-3.34,4.7-4.42,1.78-1.08,4-1.61,6.66-1.61,3.83,0,6.82.94,8.94,2.81,2.13,1.87,3.19,5.01,3.19,9.4v25.05h-8v-21.19c0-1.45-.05-2.77-.14-3.96-.09-1.19-.36-2.22-.81-3.09-.45-.87-1.11-1.53-2-2-.89-.47-2.1-.7-3.65-.7-2.71,0-4.68.84-5.89,2.53-1.22,1.68-1.82,4.07-1.82,7.16v21.26h-8v-23.29c0-2.53-.46-4.43-1.37-5.72-.91-1.29-2.58-1.93-5.02-1.93-1.03,0-2.02.21-2.98.63-.96.42-1.8,1.03-2.53,1.82-.73.8-1.31,1.78-1.75,2.95-.45,1.17-.67,2.5-.67,4v21.54h-8V15.01Z"/><path class="cls-3" d="M192.38,1.19h8v7.58h-8V1.19ZM192.38,15.01h8v36.27h-8V15.01Z"/><path class="cls-3" d="M203.89,15.01h6.03V4.14h8v10.87h7.23v5.96h-7.23v19.36c0,.84.04,1.57.11,2.18.07.61.23,1.12.49,1.54.26.42.64.74,1.16.95.51.21,1.22.32,2.1.32.56,0,1.12-.01,1.68-.04.56-.02,1.12-.11,1.68-.25v6.17c-.89.09-1.75.19-2.6.28s-1.71.14-2.6.14c-2.1,0-3.8-.2-5.09-.6-1.29-.4-2.29-.98-3.02-1.75-.73-.77-1.22-1.74-1.47-2.91-.26-1.17-.41-2.5-.46-4v-21.4h-6.03v-5.96Z"/><path class="cls-3" d="M229.36,1.19h8v18.59h.14c.98-1.64,2.44-3,4.38-4.1,1.94-1.1,4.1-1.65,6.49-1.65,3.97,0,7.11,1.03,9.4,3.09,2.29,2.06,3.44,5.15,3.44,9.26v24.91h-8v-22.8c-.09-2.85-.7-4.92-1.82-6.21-1.12-1.29-2.88-1.93-5.26-1.93-1.36,0-2.57.25-3.65.74-1.08.49-1.99,1.17-2.74,2.03-.75.87-1.33,1.88-1.75,3.05-.42,1.17-.63,2.41-.63,3.72v21.4h-8V1.19Z"/><path class="cls-3" d="M264.08,15.01h8.77l9.47,27.08h.14l9.19-27.08h8.35l-14.1,38.23c-.66,1.64-1.3,3.2-1.93,4.7-.63,1.5-1.4,2.82-2.31,3.96-.91,1.15-2.05,2.06-3.4,2.74-1.36.68-3.09,1.02-5.19,1.02-1.87,0-3.72-.14-5.54-.42v-6.73c.65.09,1.29.2,1.89.32.61.12,1.24.18,1.89.18.93,0,1.71-.12,2.31-.35.61-.23,1.11-.57,1.51-1.02.4-.45.74-.97,1.02-1.58.28-.61.54-1.31.77-2.1l.91-2.81-13.75-36.13Z"/></g></g></svg>
