<?xml version="1.0" encoding="UTF-8"?><svg id="Layer_1" xmlns="http://www.w3.org/2000/svg" xmlns:xlink="http://www.w3.org/1999/xlink" viewBox="0 0 44.3 33.21"><defs><style>.cls-1{fill:url(#linear-gradient);}</style><linearGradient id="linear-gradient" x1="44.3" y1="16.54" x2="0" y2="16.54" gradientUnits="userSpaceOnUse"><stop offset="0" stop-color="#191919"/><stop offset="1" stop-color="#df231d"/></linearGradient></defs><path class="cls-1" d="M.83,33.08c-.12,0-.25-.04-.34-.12-.13-.1-.2-.26-.2-.42v-5.92c0-.24.16-.45.38-.52,3.66-1.12,6.15-3.17,7.41-6.07.64-1.37.94-2.7.9-3.97H.54C.24,16.06,0,15.82,0,15.52V.54C0,.24.24,0,.54,0h16.23c.3,0,.54.24.54.54v12.02c0,5.87-1.45,10.55-4.31,13.9-2.86,3.34-6.92,5.57-12.06,6.61-.04,0-.07.01-.11.01ZM1.37,27.02v4.85c4.59-1.04,8.23-3.1,10.8-6.11,2.69-3.15,4.05-7.59,4.05-13.2V1.08H1.08v13.89h8.4c.28,0,.51.21.54.49.16,1.61-.16,3.3-.96,5.01-1.33,3.09-3.92,5.3-7.69,6.54ZM27.82,33.08c-.12,0-.25-.04-.34-.12-.12-.1-.2-.26-.2-.42v-5.92c0-.24.15-.45.38-.52,3.7-1.16,6.21-3.17,7.47-5.97.57-1.31.85-2.68.83-4.08h-8.42c-.3,0-.54-.24-.54-.54V.54c0-.3.24-.54.54-.54h16.23c.3,0,.54.24.54.54v12.02c0,5.8-1.41,10.45-4.2,13.84-2.78,3.39-6.88,5.63-12.19,6.68-.03,0-.07,0-.1,0ZM28.36,27.02v4.86c4.74-1.04,8.41-3.12,10.91-6.17,2.62-3.19,3.95-7.61,3.95-13.15V1.08h-15.14v13.89h8.4c.29,0,.52.22.54.5.12,1.75-.18,3.46-.9,5.1-1.34,3-3.95,5.16-7.75,6.44Z"/></svg>