<?xml version="1.0" encoding="UTF-8"?><svg id="Layer_1" xmlns="http://www.w3.org/2000/svg" viewBox="0 0 32 32"><defs><style>.cls-1{fill:#f1efed;}</style></defs><circle class="cls-1" cx="16" cy="16" r="16"/><path d="M26.18,15.74l-.87-.54c0-.08-.02-.17-.02-.25l.74-.69c.12-.11.13-.3.01-.42-.03-.03-.07-.06-.11-.07l-.95-.36c-.02-.08-.05-.16-.07-.25l.59-.82c.1-.13.07-.32-.07-.42-.04-.03-.08-.05-.13-.05l-1-.16c-.04-.08-.08-.15-.12-.23l.42-.93c.04-.09.03-.2-.02-.29s-.15-.14-.26-.13l-1.02.04c-.05-.07-.11-.13-.16-.2l.23-.99c.04-.16-.06-.32-.22-.36-.04-.01-.09-.01-.14,0l-.99.23c-.06-.05-.13-.11-.2-.16l.04-1.02c0-.16-.12-.3-.28-.31-.05,0-.1,0-.14.03l-.93.42c-.07-.04-.15-.08-.23-.12l-.16-1c-.03-.16-.18-.27-.35-.25-.04,0-.09.02-.12.05l-.83.59c-.08-.03-.16-.05-.25-.07l-.36-.95c-.06-.15-.23-.23-.39-.17-.04.02-.08.04-.11.07l-.69.75c-.08,0-.17-.02-.25-.02l-.54-.87c-.09-.14-.27-.18-.41-.1-.04.02-.07.06-.1.1l-.54.87c-.08,0-.17.02-.25.02l-.69-.75c-.11-.12-.3-.13-.42-.02-.03.03-.06.07-.08.11l-.36.95c-.08.02-.16.05-.25.07l-.82-.59c-.13-.1-.32-.06-.42.07-.03.04-.04.08-.05.12l-.16,1c-.08.04-.15.08-.23.12l-.93-.42c-.15-.07-.33,0-.39.15-.02.04-.03.09-.03.14l.04,1.02c-.07.05-.13.11-.2.16l-.99-.23c-.16-.04-.32.06-.36.22-.01.04-.01.09,0,.14l.23.99c-.05.06-.11.13-.16.2l-1.02-.04c-.16,0-.3.12-.31.29,0,.05,0,.09.03.14l.42.93c-.04.07-.08.15-.12.23l-1,.16c-.16.03-.27.18-.25.35,0,.04.02.09.05.12l.59.82c-.03.08-.05.16-.07.25l-.95.36c-.15.06-.23.23-.17.39.02.04.04.08.07.11l.74.69c0,.08-.02.17-.02.25l-.87.54c-.14.08-.18.27-.1.41.02.04.06.08.1.1l.87.54c0,.08.02.17.02.25l-.74.69c-.12.11-.13.3-.02.42.03.03.07.06.11.08l.95.36c.02.08.05.16.07.25l-.59.82c-.1.13-.07.32.06.41.04.03.08.05.13.05l1,.16c.04.08.08.15.12.23l-.42.93c-.07.15,0,.33.15.39.04.02.09.03.14.03l1.02-.04c.05.07.11.13.16.2l-.23.99c-.04.16.06.32.22.36.05.01.09.01.14,0l.99-.23c.06.05.13.11.2.16l-.04,1.02c0,.16.12.3.28.31.05,0,.1,0,.14-.03l.93-.42c.07.04.15.08.23.12l.16,1c.03.16.18.27.34.25.04,0,.09-.02.12-.05l.82-.59c.08.03.16.05.25.07l.36.95c.06.15.23.23.38.18.04-.02.08-.04.12-.08l.69-.74c.08,0,.17.02.25.03l.54.87c.09.14.27.18.41.1.04-.02.07-.06.1-.1l.54-.87c.08,0,.17-.02.25-.03l.69.74c.11.12.3.13.42.01.03-.03.06-.07.07-.11l.36-.95c.08-.02.16-.05.25-.07l.82.59c.13.1.32.07.41-.06.03-.04.05-.08.05-.13l.16-1c.08-.04.15-.08.23-.12l.93.42c.15.07.33,0,.4-.15.02-.04.03-.09.03-.13l-.04-1.02c.07-.05.13-.11.2-.16l.99.23c.16.04.32-.06.36-.22.01-.04.01-.09,0-.13l-.23-.99c.05-.06.11-.13.16-.2l1.02.04c.16,0,.3-.12.31-.28,0-.05,0-.1-.03-.14l-.42-.93c.04-.07.08-.15.12-.23l1-.16c.16-.03.27-.18.25-.35,0-.04-.02-.09-.05-.12l-.59-.82.07-.25.95-.36c.15-.06.23-.23.18-.38-.02-.04-.04-.08-.08-.11l-.74-.69c0-.08.02-.17.02-.25l.87-.54c.14-.08.18-.27.1-.41-.02-.04-.06-.08-.1-.1h0ZM20.38,22.93c-.33-.07-.54-.4-.47-.73s.4-.54.73-.47c.33.07.54.4.47.73s-.4.54-.73.47h0ZM20.09,20.94c-.3-.06-.6.13-.66.43,0,0,0,0,0,0l-.31,1.43c-.95.43-2,.67-3.11.67-1.1,0-2.18-.24-3.18-.7l-.31-1.43c-.06-.3-.36-.49-.66-.43,0,0,0,0,0,0l-1.27.27c-.24-.24-.45-.5-.65-.77h6.16c.07,0,.12-.01.12-.08v-2.18c0-.06-.05-.08-.12-.08h-1.8v-1.38h1.95c.18,0,.95.05,1.2,1.04.08.3.25,1.29.36,1.61.12.36.59,1.06,1.09,1.06h3.07s.07,0,.11-.01c-.21.29-.45.56-.7.82l-1.3-.28ZM11.56,22.9c-.33.07-.66-.14-.73-.47-.07-.33.14-.66.47-.73s.66.14.73.47c.07.33-.14.66-.47.73h0ZM9.22,13.42c.15.31.02.67-.29.82s-.67.02-.82-.29c0-.01-.01-.02-.02-.04-.13-.31.02-.67.34-.8.3-.12.64.01.78.3ZM8.5,15.12l1.32-.59c.28-.13.41-.46.28-.74,0,0,0,0,0,0l-.27-.61h1.07v4.82h-2.16c-.27-.94-.35-1.91-.24-2.88h0ZM14.29,14.65v-1.42h2.55c.13,0,.93.15.93.75,0,.49-.61.67-1.11.67h-2.36ZM23.55,15.93c0,.19,0,.38-.02.56h-.77c-.08,0-.11.05-.11.13v.36c0,.84-.47,1.02-.89,1.06-.39.04-.83-.16-.88-.41-.23-1.31-.62-1.59-1.23-2.07.76-.48,1.55-1.19,1.55-2.14,0-1.03-.7-1.67-1.18-1.99-.67-.44-1.42-.53-1.62-.53h-8c1.11-1.24,2.59-2.07,4.22-2.38l.94.99c.21.22.56.23.79.02,0,0,0,0,0,0l1.06-1.01c2.18.41,4.07,1.75,5.16,3.68l-.72,1.63c-.12.28,0,.61.28.74l1.39.62c.02.25.04.5.04.75h0ZM15.55,7.68c.24-.23.63-.22.87.02.23.24.22.63-.02.87-.26.22-.64.19-.87-.06-.21-.24-.2-.59.02-.82ZM22.72,13.45c.14-.31.5-.45.81-.31.31.14.45.5.31.81-.14.31-.5.45-.81.31-.31-.14-.45-.5-.31-.81,0,0,0,0,0,0h0Z"/></svg>