<?xml version="1.0" encoding="UTF-8" standalone="no"?>
<svg viewBox="-60 -90 400 650" version="1.1" xmlns="http://www.w3.org/2000/svg" xmlns:xlink="http://www.w3.org/1999/xlink" xmlns:sketch="http://www.bohemiancoding.com/sketch/ns">
    <title>Slice 1</title>
    <description>Created with Sketch (http://www.bohemiancoding.com/sketch)</description>
    <defs>
        <linearGradient x1="0.00768029042%" y1="49.9431786%" x2="125.026657%" y2="49.9431786%" id="linearGradient-1">
            <stop stop-color="#191919" stop-opacity="0.695800781" offset="0%"></stop>
            <stop stop-color="#191919" stop-opacity="0.248736213" offset="100%"></stop>
        </linearGradient>
    </defs>
    <g id="Page 1" fill="#D8D8D8" fill-rule="evenodd">
        <g id="svg2403" fill="#000000">
            <g id="g2412" transform="translate(139.750000, 226.500000) scale(1, -1) translate(-139.750000, -226.500000)">
                <g id="g2414">
                    <g id="g2416">
                        <g id="g2422">
                            <g id="g2424">
                                <path d="M0.116249084,313.663723 L0.116249084,278.798744 C0.116249084,272.921244 126.915003,263.078743 209.526249,243.932494 L209.526249,243.932494 C249.43375,253.184994 279.03875,264.599995 279.03875,278.798744 L279.03875,278.798744 L279.03875,313.663744 C279.03875,327.852494 249.43375,339.279994 209.526249,348.528744 L209.526249,348.528744 C126.914993,329.37997 0.116249084,319.534999 0.116249084,313.663723" id="path2432" fill="url(#linearGradient-1)"></path>
                            </g>
                        </g>
                    </g>
                </g>
                <g id="g2434">
                    <g id="g2436">
                        <g id="g2442">
                            <g id="g2444">
                                <path d="M0.116249084,174.202515 L0.116249084,139.336266 C0.116249084,133.458765 126.915003,123.616265 209.526249,104.471265 L209.526249,104.471265 C249.43375,113.720016 279.03875,125.138766 279.03875,139.336266 L279.03875,139.336266 L279.03875,174.202515 C279.03875,188.392515 249.43375,199.817516 209.526249,209.067515 L209.526249,209.067515 C126.914993,189.918763 0.116249084,180.073792 0.116249084,174.202515" id="path2452" fill="url(#linearGradient-1)"></path>
                            </g>
                        </g>
                    </g>
                </g>
                <g id="g2554">
                    <g id="g2556">
                        <g id="g2562">
                            <g id="g2564">
                                <path d="M0.116249084,243.931254 L0.116249084,139.336242 C0.116249084,148.052492 279.03875,165.484993 279.03875,209.066242 L279.03875,209.066242 L279.03875,313.662495 C279.038788,270.081233 0.116249084,252.648753 0.116249084,243.931254" id="path2572" fill="#191919"></path>
                            </g>
                        </g>
                    </g>
                </g>
                <g id="g2574">
                    <g id="g2576">
                        <g id="g2582">
                            <g id="g2584">
                                <path d="M0.116249084,104.471268 L0.116249084,-0.124984741 C0.116249084,8.59126532 279.03875,26.0250154 279.03875,69.6062651 L279.03875,69.6062651 L279.03875,174.201263 C279.038788,130.618767 0.116249084,113.186287 0.116249084,104.471268" id="path2592" fill="#191919"></path>
                            </g>
                        </g>
                    </g>
                </g>
                <g id="g2694">
                    <g id="g2696">
                        <g id="g2702">
                            <g id="g2704">
                                <path d="M0.116249084,383.395003 L0.116249084,278.798751 C0.116249084,287.515001 279.03875,304.948751 279.03875,348.528751 L279.03875,348.528751 L279.03875,453.125004 C279.038788,409.543761 0.116249084,392.111262 0.116249084,383.395003" id="path2712" fill="#191919"></path>
                            </g>
                        </g>
                    </g>
                </g>
            </g>
        </g>
    </g>
</svg>
