<?xml version="1.0" encoding="UTF-8"?><svg id="Layer_1" xmlns="http://www.w3.org/2000/svg" viewBox="0 0 32 32"><defs><style>.cls-1{fill:#f1efed;}</style></defs><circle class="cls-1" cx="16" cy="16" r="16"/><path d="M23.63,18.46c.04-.09.04-.17.09-.26,1.05-4.11-1.44-8.92-5.73-11.46,1.88,2.54,2.62,5.56,1.97,8.27-.04.22-.13.48-.22.7-.12-.07-.24-.14-.35-.22,0,0-4.24-2.62-8.79-7.22-.13-.13,2.45,3.67,5.34,6.69-1.36-.79-5.2-3.54-7.61-5.77.26.48.66.96,1.05,1.44,2.01,2.58,4.64,5.73,7.79,8.14-2.23,1.36-5.34,1.44-8.49,0-.79-.35-1.44-.79-2.19-1.31,1.31,2.06,3.37,3.94,5.82,4.94,2.93,1.27,5.9,1.18,8.05,0,0,0,.13-.08.31-.17,1.05-.52,3.11-1.09,4.24,1.09.31.61.87-2.23-1.27-4.86h0Z"/></svg>