<?xml version="1.0" encoding="UTF-8"?><svg id="Layer_1" xmlns="http://www.w3.org/2000/svg" xmlns:xlink="http://www.w3.org/1999/xlink" viewBox="0 0 32 32"><defs><style>.cls-1{fill:url(#linear-gradient-5);}.cls-2{fill:url(#linear-gradient-6);}.cls-3{fill:url(#linear-gradient-4);}.cls-4{fill:url(#linear-gradient-3);}.cls-5{fill:url(#linear-gradient-2);}.cls-6{fill:url(#linear-gradient);}.cls-7{fill:#fff;}</style><linearGradient id="linear-gradient" x1="2821.01" y1="6415.16" x2="2830.22" y2="6416.95" gradientTransform="translate(6422.17 -2802.34) rotate(90)" gradientUnits="userSpaceOnUse"><stop offset="0" stop-color="#fff"/><stop offset=".11" stop-color="#fef9f9"/><stop offset=".24" stop-color="#fceaea"/><stop offset=".39" stop-color="#f8d1d0"/><stop offset=".54" stop-color="#f3afac"/><stop offset=".71" stop-color="#ec827f"/><stop offset=".88" stop-color="#e54c48"/><stop offset="1" stop-color="#df231d"/></linearGradient><linearGradient id="linear-gradient-2" x1="2821.65" y1="6411.52" x2="2828.54" y2="6412.86" gradientTransform="translate(6420.71 -2804.83) rotate(90)" xlink:href="#linear-gradient"/><linearGradient id="linear-gradient-3" x1="2823.48" y1="6408.02" x2="2827.47" y2="6408.8" gradientTransform="translate(6419.73 -2807.94) rotate(90)" xlink:href="#linear-gradient"/><linearGradient id="linear-gradient-4" x1="2832.39" y1="6394.59" x2="2827.16" y2="6389.36" gradientTransform="translate(6417.96 -2820.82) rotate(90)" gradientUnits="userSpaceOnUse"><stop offset="0" stop-color="#fff"/><stop offset=".14" stop-color="#f7cbc9"/><stop offset=".3" stop-color="#f09895"/><stop offset=".46" stop-color="#e96e6a"/><stop offset=".61" stop-color="#e54d48"/><stop offset=".76" stop-color="#e13630"/><stop offset=".89" stop-color="#df2722"/><stop offset="1" stop-color="#df231d"/></linearGradient><linearGradient id="linear-gradient-5" x1="2832.31" y1="6397.85" x2="2828.28" y2="6393.82" gradientTransform="translate(6419.46 -2818.24) rotate(90)" xlink:href="#linear-gradient-4"/><linearGradient id="linear-gradient-6" x1="2831.13" y1="6400.86" x2="2828.64" y2="6398.37" gradientTransform="translate(6420.27 -2815.44) rotate(90)" xlink:href="#linear-gradient-4"/></defs><path class="cls-7" d="M10.04,31.51l-.79-.79,2.22-2.22c2.64-2.64,4.1-6.29,4.02-10.02l-.1-4.93c-.08-4.03,1.5-7.98,4.35-10.83l2.22-2.22.79.79-2.22,2.22c-2.64,2.64-4.1,6.29-4.02,10.02l.1,4.93c.08,4.03-1.5,7.98-4.35,10.83l-2.22,2.22Z"/><path class="cls-7" d="M1.29,22.75l-.79-.79,2.22-2.22c2.85-2.85,6.81-4.42,10.83-4.35l4.93.1c3.72.06,7.38-1.39,10.02-4.02l2.22-2.22.79.79-2.22,2.22c-2.85,2.85-6.8,4.43-10.83,4.35l-4.93-.1c-3.74-.09-7.38,1.39-10.02,4.02l-2.22,2.22Z"/><rect class="cls-6" x="5.46" y="18.37" width="1.12" height="9.34" transform="translate(-14.53 11.01) rotate(-45)"/><rect class="cls-5" x="7.82" y="16.48" width="1.12" height="6.93" transform="translate(-11.65 11.77) rotate(-45)"/><rect class="cls-4" x="10.76" y="15.58" width="1.12" height="3.93" transform="translate(-9.09 13.14) rotate(-45)"/><rect class="cls-3" x="25.42" y="4.28" width="1.12" height="9.34" transform="translate(1.28 20.99) rotate(-45)"/><rect class="cls-1" x="23.06" y="8.59" width="1.12" height="6.93" transform="translate(-1.61 20.23) rotate(-45)"/><rect class="cls-2" x="20.09" y="12.51" width="1.12" height="3.86" transform="translate(-4.16 18.83) rotate(-45)"/></svg>