<?xml version="1.0" encoding="UTF-8"?><svg id="Layer_1" xmlns="http://www.w3.org/2000/svg" xmlns:xlink="http://www.w3.org/1999/xlink" viewBox="0 0 32 32"><defs><style>.cls-1{fill:url(#linear-gradient);}.cls-2{fill:#fff;}</style><linearGradient id="linear-gradient" x1="7.52" y1="15.27" x2="23.72" y2="15.27" gradientUnits="userSpaceOnUse"><stop offset="0" stop-color="#df231d"/><stop offset=".11" stop-color="#df2822"/><stop offset=".24" stop-color="#e13731"/><stop offset=".39" stop-color="#e5504b"/><stop offset=".54" stop-color="#ea726f"/><stop offset=".71" stop-color="#f19f9c"/><stop offset=".88" stop-color="#f8d5d3"/><stop offset="1" stop-color="#fff"/></linearGradient></defs><path class="cls-2" d="M9,30.94c-1.75,0-3.51-.67-4.84-2-2.67-2.67-2.67-7.02,0-9.69L20.84,2.57c1-1,2.32-1.55,3.73-1.55s2.74.55,3.73,1.55,1.55,2.32,1.55,3.73-.55,2.74-1.55,3.73l-3.29,3.29-.79-.79,3.29-3.29c.79-.79,1.22-1.83,1.22-2.94s-.43-2.15-1.22-2.94c-1.62-1.62-4.26-1.62-5.88,0L4.95,20.04c-1.08,1.08-1.68,2.52-1.68,4.05s.6,2.97,1.68,4.05c2.23,2.23,5.87,2.23,8.1,0l13.74-13.74.79.79-13.74,13.74c-1.34,1.34-3.09,2-4.84,2Z"/><path class="cls-1" d="M11.23,25.58c-.99,0-1.92-.39-2.62-1.09-1.44-1.44-1.44-3.79,0-5.24l14.29-14.29.79.79-14.29,14.29c-1.01,1.01-1.01,2.65,0,3.66.98.98,2.68.98,3.66,0l9.87-9.87.79.79-9.87,9.87c-.7.7-1.63,1.08-2.62,1.08Z"/></svg>